<svg width="17" height="16" viewBox="0 0 17 16" fill="none" xmlns="http://www.w3.org/2000/svg">
<path d="M11.1666 5.33337C12.2275 5.33337 13.2449 5.7548 13.9951 6.50495C14.7452 7.25509 15.1666 8.27251 15.1666 9.33337V14H12.5V9.33337C12.5 8.97975 12.3595 8.64061 12.1094 8.39057C11.8594 8.14052 11.5202 8.00004 11.1666 8.00004C10.813 8.00004 10.4739 8.14052 10.2238 8.39057C9.97377 8.64061 9.83329 8.97975 9.83329 9.33337V14H7.16663V9.33337C7.16663 8.27251 7.58805 7.25509 8.3382 6.50495C9.08834 5.7548 10.1058 5.33337 11.1666 5.33337V5.33337Z" stroke="#E76943" stroke-linecap="round" stroke-linejoin="round"/>
<path d="M4.50004 6H1.83337V14H4.50004V6Z" stroke="#E76943" stroke-linecap="round" stroke-linejoin="round"/>
<path d="M3.16671 4.00004C3.90309 4.00004 4.50004 3.40309 4.50004 2.66671C4.50004 1.93033 3.90309 1.33337 3.16671 1.33337C2.43033 1.33337 1.83337 1.93033 1.83337 2.66671C1.83337 3.40309 2.43033 4.00004 3.16671 4.00004Z" stroke="#E76943" stroke-linecap="round" stroke-linejoin="round"/>
</svg>
