<svg width="17" height="16" viewBox="0 0 17 16" fill="none" xmlns="http://www.w3.org/2000/svg">
<g clip-path="url(#clip0_1_8073)">
<path d="M15.8333 1.99999C15.1949 2.45031 14.488 2.79473 13.74 3.01999C13.3385 2.55833 12.8048 2.23112 12.2113 2.08261C11.6178 1.9341 10.993 1.97145 10.4213 2.18963C9.84974 2.4078 9.35892 2.79626 9.01528 3.30247C8.67164 3.80868 8.49176 4.40821 8.49996 5.01999V5.68666C7.32838 5.71704 6.16748 5.4572 5.12063 4.93029C4.07379 4.40338 3.1735 3.62575 2.49996 2.66666C2.49996 2.66666 -0.166707 8.66666 5.83329 11.3333C4.46031 12.2653 2.82473 12.7326 1.16663 12.6667C7.16663 16 14.5 12.6667 14.5 4.99999C14.4993 4.81429 14.4815 4.62905 14.4466 4.44666C15.127 3.77565 15.6072 2.92847 15.8333 1.99999V1.99999Z" stroke="#E76943" stroke-linecap="round" stroke-linejoin="round"/>
</g>
<defs>
<clipPath id="clip0_1_8073">
<rect width="16" height="16" fill="white" transform="translate(0.5)"/>
</clipPath>
</defs>
</svg>
